<?xml version="1.0" encoding="UTF-8" standalone="no"?>
<svg
   width="102.04523"
   height="100.99448"
   viewBox="0 0 26.999467 26.721456"
   version="1.1"
   id="svg8"
   xml:space="preserve"
   xmlns="http://www.w3.org/2000/svg"
   xmlns:svg="http://www.w3.org/2000/svg"
   xmlns:rdf="http://www.w3.org/1999/02/22-rdf-syntax-ns#"
   xmlns:cc="http://creativecommons.org/ns#"
   xmlns:dc="http://purl.org/dc/elements/1.1/"><defs
     id="defs2" /><metadata
     id="metadata5"><rdf:RDF><cc:Work
         rdf:about=""><dc:format>image/svg+xml</dc:format><dc:type
           rdf:resource="http://purl.org/dc/dcmitype/StillImage" /></cc:Work></rdf:RDF></metadata><g
     id="g51"
     style="stroke-width:0.512068;stroke-dasharray:none"
     transform="matrix(1.0333932,0,0,1.0333932,-33.476517,-80.497104)"><g
       id="g46"
       transform="matrix(1.1654955,0,0,1.1656812,18.438424,-6.8592935)"
       style="stroke-width:0.43932;stroke-dasharray:none"><g
         id="g20134"
         transform="matrix(0.49748683,0,0,0.49748366,25.041147,33.583756)"
         style="stroke-width:0.883083;stroke-dasharray:none"><path
           id="rect1"
           style="fill:#eedeeb;stroke:#401138;stroke-width:0.883083;stroke-linejoin:round;stroke-dasharray:none;paint-order:markers fill stroke"
           d="m -15.021013,89.99161 v 25.6494 a 2,2 45 0 0 2,2 H 6.0582178 a 2,2 135 0 0 2,-2 V 90.467883 a 1.9999999,1.9999999 44.999999 0 0 -2,-2 l -16.9809138,10e-7 a 2.0629493,2.0629493 78.336273 0 1 -4.098317,-0.476274 z" /></g><path
         style="fill:#eedeeb;fill-opacity:1;stroke:#e525c4;stroke-width:0.43932;stroke-linejoin:round;stroke-dasharray:none;stroke-opacity:1;paint-order:markers fill stroke"
         d="m 18.877507,83.851857 h 8.86344"
         id="path5" /><path
         style="fill:#eedeeb;fill-opacity:1;stroke:#e525c4;stroke-width:0.43932;stroke-linejoin:round;stroke-dasharray:none;stroke-opacity:1;paint-order:markers fill stroke"
         d="m 18.877507,85.968525 h 8.86344"
         id="path6" /><path
         style="fill:#eedeeb;fill-opacity:1;stroke:#e525c4;stroke-width:0.43932;stroke-linejoin:round;stroke-dasharray:none;stroke-opacity:1;paint-order:markers fill stroke"
         d="m 18.877507,88.085193 h 4.554025"
         id="path7" /><path
         style="fill:#eedeeb;fill-opacity:1;stroke:#e525c4;stroke-width:0.43932;stroke-linejoin:round;stroke-dasharray:none;stroke-opacity:1;paint-order:markers fill stroke"
         d="m 18.877507,81.735189 h 8.86344"
         id="path14" /></g><g
       id="g9"
       transform="matrix(0.79679558,0.79679557,-0.79679557,0.79679558,130.42109,33.170685)"
       style="stroke-width:0.454428;stroke-dasharray:none"><path
         style="fill:#eedeeb;fill-opacity:1;stroke:#e525c4;stroke-width:0.454428;stroke-linecap:round;stroke-linejoin:round;stroke-dasharray:none;stroke-opacity:1;paint-order:markers fill stroke"
         d="m -10.500294,84.700328 1.9312828,9e-6 1.1e-6,-2.712424 -1.9312879,-1e-6 z"
         id="path13" /><path
         id="rect9"
         style="fill:#eedeeb;fill-opacity:1;stroke:#401138;stroke-width:0.454428;stroke-linejoin:round;stroke-dasharray:none;paint-order:markers fill stroke"
         d="m -10.500286,84.700062 v 11.429453 l 0.9655299,1.667755 0.9655302,-1.667755 4.99e-4,-11.429129 z" /><path
         id="path11"
         style="fill:#eedeeb;fill-opacity:1;stroke:#401138;stroke-width:0.454428;stroke-linejoin:round;stroke-dasharray:none;paint-order:markers fill stroke"
         d="m -10.5003,96.129696 0.482826,-0.52784 0.4828214,0.59381 0.4828211,-0.59381 0.4828195,0.52784 -0.9656597,1.667431 z" /></g><g
       id="g32"
       transform="matrix(0.5,0,0,0.5,46.502077,39.430886)"
       style="stroke-width:1.02413;stroke-dasharray:none"><path
         id="rect14"
         style="fill:#eedeeb;fill-opacity:1;stroke:#401138;stroke-width:1.02413;stroke-linecap:round;stroke-linejoin:round;stroke-dasharray:none;stroke-opacity:1;paint-order:markers fill stroke"
         d="m -16.710608,81.98776 c -3.627826,0 -6.548437,2.920611 -6.548437,6.548438 0,2.515682 1.405004,4.690277 3.475756,5.78776 l -0.0026,1.561662 h 6.150529 l -0.0026,-1.561662 c 2.070752,-1.097483 3.475757,-3.272078 3.475757,-5.78776 0,-3.627827 -2.920612,-6.548438 -6.548438,-6.548438 z" /><path
         id="path15"
         style="fill:#eedeeb;fill-opacity:1;stroke:#401138;stroke-width:1.02413;stroke-linecap:square;stroke-linejoin:round;stroke-dasharray:none;paint-order:markers fill stroke"
         d="m -19.182169,95.885701 v 3.367309 h 4.943124 v -3.367309 z" /><path
         style="fill:#eedeeb;fill-opacity:1;stroke:#401138;stroke-width:1.02413;stroke-linecap:square;stroke-linejoin:bevel;stroke-dasharray:none;stroke-opacity:1;paint-order:markers fill stroke"
         d="M -16.710496,95.88562 V 90.203701"
         id="path25" /><path
         style="fill:#eedeeb;fill-opacity:1;stroke:#401138;stroke-width:1.02413;stroke-linecap:square;stroke-linejoin:bevel;stroke-dasharray:none;stroke-opacity:1;paint-order:markers fill stroke"
         d="m -18.647481,90.2037 h 3.873912"
         id="path27" /><path
         style="fill:#eedeeb;fill-opacity:1;stroke:#e525c4;stroke-width:1.02413;stroke-linecap:round;stroke-linejoin:round;stroke-dasharray:none;stroke-opacity:1;paint-order:markers fill stroke"
         d="m -16.710608,80.649547 2.5e-5,-3.207425"
         id="path30" /><path
         style="fill:#eedeeb;fill-opacity:1;stroke:#e525c4;stroke-width:1.02413;stroke-linecap:round;stroke-linejoin:round;stroke-dasharray:none;stroke-opacity:1;paint-order:markers fill stroke"
         d="m -24.039228,85.806133 -3.663357,-1.085416"
         id="path31" /><path
         style="fill:#eedeeb;fill-opacity:1;stroke:#e525c4;stroke-width:1.02413;stroke-linecap:round;stroke-linejoin:round;stroke-dasharray:none;stroke-opacity:1;paint-order:markers fill stroke"
         d="m -9.3819391,85.806134 3.6633557,-1.085416"
         id="path32" /></g></g></svg>
