<?xml version="1.0" encoding="UTF-8" standalone="no"?>
<svg
   width="101.99985"
   height="101.89153"
   viewBox="0 0 26.987459 26.958802"
   version="1.1"
   id="svg8"
   xml:space="preserve"
   xmlns="http://www.w3.org/2000/svg"
   xmlns:svg="http://www.w3.org/2000/svg"
   xmlns:rdf="http://www.w3.org/1999/02/22-rdf-syntax-ns#"
   xmlns:cc="http://creativecommons.org/ns#"
   xmlns:dc="http://purl.org/dc/elements/1.1/"><defs
     id="defs2" /><metadata
     id="metadata5"><rdf:RDF><cc:Work
         rdf:about=""><dc:format>image/svg+xml</dc:format><dc:type
           rdf:resource="http://purl.org/dc/dcmitype/StillImage" /></cc:Work></rdf:RDF></metadata><g
     id="g1"
     transform="translate(-33.085126,-214.66563)"><g
       id="g122"
       transform="matrix(1.2070917,0,0,1.2070917,65.790906,119.90321)"
       style="stroke-width:0.828438"><path
         d="m -21.340944,82.98776 v 16.52187 a 1,1 45 0 0 1,1 h 7.260942 a 1,1 135 0 0 1,-1 V 82.98776 a 1,1 45 0 0 -1,-1 h -7.260942 a 1,1 135 0 0 -1,1 z"
         style="opacity:1;vector-effect:none;fill:#eedeeb;fill-opacity:1;stroke:#401138;stroke-width:0.657572;stroke-linecap:round;stroke-linejoin:round;stroke-miterlimit:10;stroke-opacity:1;paint-order:markers fill stroke;stop-color:#000000;stop-opacity:1"
         id="path121" /><path
         style="color:#000000;fill:#e525c4;stroke-linecap:round;stroke-linejoin:round;stroke-miterlimit:10;-inkscape-stroke:none;paint-order:markers fill stroke"
         d="m -16.710937,97.880668 c -0.434253,0 -0.792969,0.358715 -0.792969,0.792969 0,0.434253 0.358716,0.794922 0.792969,0.794922 0.434252,0 0.794921,-0.360669 0.794921,-0.794922 0,-0.434254 -0.360669,-0.792969 -0.794921,-0.792969 z"
         id="rect121" /></g><g
       id="g128"
       transform="matrix(0.70404847,0,0,0.70404847,51.767167,167.14471)"
       style="stroke:#e525c4;stroke-width:1.42036;stroke-opacity:1"><path
         style="font-variation-settings:normal;opacity:1;vector-effect:none;fill:#eedeeb;fill-opacity:1;stroke:#401138;stroke-width:1.12741;stroke-linecap:round;stroke-linejoin:round;stroke-miterlimit:10;stroke-dasharray:none;stroke-dashoffset:0;stroke-opacity:1;-inkscape-stroke:none;paint-order:markers fill stroke"
         id="rect122"
         width="18.521753"
         height="9.2607718"
         x="-25.97146"
         y="81.987907"
         rx="0"
         ry="0"
         d="m -23.97146,81.987907 14.521753,0 a 2,2 45 0 1 2,2 v 5.260772 a 2,2 135 0 1 -2,2 H -23.97146 a 2,2 45 0 1 -2,-2 v -5.260772 a 2,2 135 0 1 2,-2 z" /><g
         id="g127"
         transform="matrix(0.41977179,0,0,0.41977179,-8.8198711,46.37406)"
         style="stroke:#e525c4;stroke-width:3.38363;stroke-opacity:1"><g
           id="g124"
           transform="matrix(1.413355,0,0,1,2.8561111,0)"
           style="stroke:#e525c4;stroke-width:2.84616;stroke-opacity:1"><path
             style="opacity:1;vector-effect:none;fill:none;fill-opacity:1;stroke:#e525c4;stroke-width:2.25913;stroke-linecap:round;stroke-linejoin:round;stroke-miterlimit:10;stroke-dasharray:none;stroke-dashoffset:0;stroke-opacity:1;-inkscape-stroke:none;paint-order:markers fill stroke"
             d="m -23.259013,100.50954 3.323574,-9.260861 3.224967,9.260861"
             id="path123" /><path
             style="opacity:1;vector-effect:none;fill:#401138;fill-opacity:1;stroke:#e525c4;stroke-width:2.25913;stroke-linecap:round;stroke-linejoin:round;stroke-miterlimit:10;stroke-dasharray:none;stroke-dashoffset:0;stroke-opacity:1;-inkscape-stroke:none;paint-order:markers fill stroke"
             d="m -17.655038,97.797111 h -4.659423"
             id="path124" /></g><path
           style="opacity:1;vector-effect:none;fill:none;fill-opacity:1;stroke:#e525c4;stroke-width:2.68578;stroke-linecap:round;stroke-linejoin:round;stroke-miterlimit:10;stroke-dasharray:none;stroke-dashoffset:0;stroke-opacity:1;-inkscape-stroke:none;paint-order:markers fill stroke"
           d="m -17.722002,91.248724 1.12e-4,9.260816 h 2.559736 a 5,5 135 0 0 5,-5 4.6451299,4.6451299 40.436487 0 0 -5,-4.260827 l -2.559847,1.1e-5"
           id="path126"
           transform="translate(2.7124481)" /></g></g><g
       id="g129"
       transform="matrix(0.70556538,0,0,0.70556538,64.931971,157.21468)"
       style="stroke-width:1.41731"><path
         style="opacity:1;vector-effect:none;fill:#eedeeb;fill-opacity:1;stroke:#e525c4;stroke-width:1.12498;stroke-linecap:round;stroke-linejoin:round;stroke-miterlimit:10;stroke-dasharray:none;stroke-dashoffset:0;stroke-opacity:1;-inkscape-stroke:none;paint-order:markers fill stroke"
         d="m -7.449707,81.987905 -9.260766,18.521635 -2.280428,-6.980514 -6.980561,-2.280256 z"
         id="path128" /><path
         style="opacity:1;vector-effect:none;fill:none;fill-opacity:1;stroke:#e525c4;stroke-width:1.12498;stroke-linecap:round;stroke-linejoin:round;stroke-miterlimit:10;stroke-dasharray:none;stroke-dashoffset:0;stroke-opacity:1;-inkscape-stroke:none;paint-order:markers fill stroke"
         d="M -18.9909,93.529024 -7.4497104,81.987905"
         id="path129" /></g></g></svg>
