<?xml version="1.0" encoding="UTF-8" standalone="no"?>
<svg
   width="101.98746"
   height="102.07861"
   viewBox="0 0 26.98418 27.008301"
   version="1.1"
   id="svg8"
   xml:space="preserve"
   xmlns="http://www.w3.org/2000/svg"
   xmlns:svg="http://www.w3.org/2000/svg"
   xmlns:rdf="http://www.w3.org/1999/02/22-rdf-syntax-ns#"
   xmlns:cc="http://creativecommons.org/ns#"
   xmlns:dc="http://purl.org/dc/elements/1.1/"><defs
     id="defs2" /><metadata
     id="metadata5"><rdf:RDF><cc:Work
         rdf:about=""><dc:format>image/svg+xml</dc:format><dc:type
           rdf:resource="http://purl.org/dc/dcmitype/StillImage" /></cc:Work></rdf:RDF></metadata><g
     id="g192"
     transform="translate(30.201035,-77.734113)"><rect
       style="fill:#eedeeb;fill-opacity:1;stroke:#e525c4;stroke-width:0.793751;stroke-linecap:round;stroke-linejoin:round;stroke-miterlimit:10;stroke-opacity:1;-inkscape-stroke:none;paint-order:markers fill stroke"
       id="rect191"
       width="13.096825"
       height="13.096824"
       x="-23.259029"
       y="91.248711"
       rx="6.5484114"
       ry="6.5484114" /><path
       id="rect179"
       style="fill:#eedeeb;stroke:#401138;stroke-width:0.79375;stroke-linecap:round;stroke-linejoin:round;stroke-miterlimit:10;paint-order:markers fill stroke"
       transform="rotate(90)"
       d="m 81.906616,3.6137276 h 9.70069 a 2,2 45 0 1 2,2 l 0,9.0968234 a 2,2 135 0 1 -2,2 l -9.70069,0 a 2,2 45 0 1 -2,-2 V 5.6137276 a 2,2 135 0 1 2,-2 z" /><g
       id="g191"
       transform="matrix(0.81800075,0,0,0.81800075,-7.8421158,12.177086)"
       style="stroke-width:1.22249"><g
         id="g190"
         style="stroke-width:1.22249"><g
           id="g189"
           transform="translate(3.3049195,2.8774806)"
           style="stroke-width:1.22249"><path
             id="path180"
             style="fill:#eedeeb;fill-opacity:1;stroke:#401138;stroke-width:0.970351;stroke-linecap:round;stroke-linejoin:round;stroke-miterlimit:10;paint-order:markers fill stroke"
             d="m -24.898663,97.82106 0.712444,0 a 1,1 45 0 1 1,1 l 0,0.71242 a 1,1 135 0 1 -1,1 h -0.712444 a 1,1 45 0 1 -1,-1 l 0,-0.71242 a 1,1 135 0 1 1,-1 z" /><path
             id="path181"
             style="fill:#eedeeb;fill-opacity:1;stroke:#401138;stroke-width:0.970351;stroke-linecap:round;stroke-linejoin:round;stroke-miterlimit:10;paint-order:markers fill stroke"
             d="m -9.089352,82.011864 h 0.7124437 a 1,1 45 0 1 1,1 v 0.712424 a 1,1 135 0 1 -1,1 H -9.089352 a 1,1 45 0 1 -1,-1 v -0.712424 a 1,1 135 0 1 1,-1 z" /><path
             style="fill:none;fill-opacity:1;stroke:#401138;stroke-width:0.970354;stroke-linecap:butt;stroke-linejoin:round;stroke-miterlimit:10;stroke-opacity:1;-inkscape-stroke:none;paint-order:markers fill stroke"
             d="m -23.186222,83.36807 h 13.09687"
             id="path182" /><path
             style="fill:none;fill-opacity:1;stroke:#401138;stroke-width:0.970354;stroke-linecap:butt;stroke-linejoin:round;stroke-miterlimit:10;stroke-opacity:1;-inkscape-stroke:none;paint-order:markers fill stroke"
             d="M -24.542442,84.72428 V 97.82106"
             id="path183" /><path
             style="fill:#eedeeb;fill-opacity:1;stroke:#e525c4;stroke-width:0.970354;stroke-linecap:round;stroke-linejoin:round;stroke-miterlimit:10;stroke-opacity:1;-inkscape-stroke:none;paint-order:markers fill stroke"
             d="m -21.48697,80.06309 -6.353956,6.354045"
             id="path186" /><path
             id="path184"
             style="fill:#eedeeb;fill-opacity:1;stroke:#401138;stroke-width:0.970351;stroke-linecap:round;stroke-linejoin:round;stroke-miterlimit:10;paint-order:markers fill stroke"
             d="m -21.486978,78.14511 1.4e-5,-1e-5 c 0.53128,-0.53128 1.386704,-0.53127 1.917979,1e-5 0.531278,0.53128 0.531277,1.38668 1e-6,1.91797 l -1.3e-5,1e-5 c -0.531279,0.53128 -1.386697,0.53128 -1.917973,0 -0.531278,-0.53128 -0.531282,-1.38669 -8e-6,-1.91798 z" /><path
             id="path185"
             style="fill:none;stroke:#401138;stroke-width:0.970351;stroke-linecap:round;stroke-linejoin:round;stroke-miterlimit:10;paint-order:markers fill stroke"
             d="m -29.758919,86.417135 1.4e-5,-1e-5 c 0.53128,-0.53128 1.386704,-0.53127 1.917979,1e-5 0.531278,0.53128 0.531277,1.38668 1e-6,1.91797 l -1.3e-5,1e-5 c -0.531279,0.53128 -1.386697,0.53128 -1.917973,0 -0.531278,-0.53128 -0.531282,-1.38669 -8e-6,-1.91798 z" /><rect
             style="fill:#eedeeb;fill-opacity:1;stroke:#401138;stroke-width:0.970351;stroke-linecap:round;stroke-linejoin:round;stroke-miterlimit:10;stroke-opacity:1;-inkscape-stroke:none;paint-order:markers fill stroke"
             id="rect186"
             width="2.7124434"
             height="2.712424"
             x="-25.898663"
             y="82.011864"
             rx="1.356212"
             ry="1.356212" /><g
             id="g188"
             transform="matrix(0.41962566,0,0,0.41962566,-13.820954,48.835884)"
             style="stroke-width:2.9133"><path
               id="path187"
               style="fill:#eedeeb;stroke:#e525c4;stroke-width:2.31242;stroke-linecap:round;stroke-linejoin:round;stroke-miterlimit:10;stroke-opacity:1;paint-order:markers fill stroke"
               d="m -15.544714,92.414531 c 0.751349,-0.751349 1.961101,-0.751349 2.71245,0 l 5.3825558,5.382556 c 0.7513452,0.751345 0.7513481,1.961101 1.7e-6,2.712453 -0.7513556,0.75134 -1.9611028,0.75135 -2.7124525,-1e-5 l -5.382556,-5.38255 c -0.751347,-0.751349 -0.751348,-1.961101 10e-7,-2.712449 z" /><path
               style="fill:#eedeeb;fill-opacity:1;stroke:#e525c4;stroke-width:2.31242;stroke-linecap:round;stroke-linejoin:round;stroke-miterlimit:10;stroke-opacity:1;-inkscape-stroke:none;paint-order:markers fill stroke"
               d="m -25.97146,81.987905 9.260987,18.521635 9.2607668,-9.260862 z"
               id="path188" /></g></g></g></g></g></svg>
