<?xml version="1.0" encoding="UTF-8" standalone="no"?>
<svg
   width="101.98932"
   height="101.68634"
   viewBox="0 0 26.984673 26.904512"
   version="1.1"
   id="svg8"
   xml:space="preserve"
   xmlns="http://www.w3.org/2000/svg"
   xmlns:svg="http://www.w3.org/2000/svg"
   xmlns:rdf="http://www.w3.org/1999/02/22-rdf-syntax-ns#"
   xmlns:cc="http://creativecommons.org/ns#"
   xmlns:dc="http://purl.org/dc/elements/1.1/"><defs
     id="defs2" /><metadata
     id="metadata5"><rdf:RDF><cc:Work
         rdf:about=""><dc:format>image/svg+xml</dc:format><dc:type
           rdf:resource="http://purl.org/dc/dcmitype/StillImage" /></cc:Work></rdf:RDF></metadata><g
     id="g77"
     transform="translate(3.9353997,-66.170607)"><g
       id="g108"><g
         id="g59"
         transform="matrix(1.2673456,0,0,1.2673456,30.735022,-34.702132)"
         style="stroke-width:0.789051"><path
           style="fill:#eedeeb;fill-opacity:1;stroke:#401138;stroke-width:0.626309;stroke-linecap:round;stroke-linejoin:round;stroke-miterlimit:10;stroke-dasharray:none;stroke-opacity:1;paint-order:markers fill stroke"
           id="rect6"
           width="18.521753"
           height="9.2608166"
           x="-25.971458"
           y="81.98793"
           d="m -23.971458,81.98793 14.5217529,0 a 2,2 45 0 1 2,2 v 5.260817 a 2,2 135 0 1 -2,2 H -23.971458 a 2,2 45 0 1 -2,-2 V 83.98793 a 2,2 135 0 1 2,-2 z" /><rect
           style="fill:#eedeeb;fill-opacity:1;stroke:#401138;stroke-width:0.626309;stroke-linecap:round;stroke-linejoin:round;stroke-miterlimit:10;stroke-dasharray:none;stroke-opacity:1;paint-order:markers fill stroke"
           id="rect7"
           width="2.7124498"
           height="9.2611618"
           x="-18.066475"
           y="91.248413" /><path
           id="rect10"
           style="fill:#eedeeb;stroke:#401138;stroke-width:0.626308;stroke-linecap:round;stroke-linejoin:round;stroke-miterlimit:10;paint-order:markers fill stroke"
           d="m -26.043566,89.405479 h 18.6659701 a 1,1 45 0 1 1,1 0.92498387,0.92498387 139.85836 0 1 -1,0.843321 H -26.043566 a 1,1 45 0 1 -1,-1 0.92498387,0.92498387 139.85836 0 1 1,-0.843321 z" /><path
           style="fill:none;fill-opacity:1;stroke:#401138;stroke-width:0.626309;stroke-linecap:round;stroke-linejoin:round;stroke-miterlimit:10;stroke-dasharray:none;stroke-opacity:1;paint-order:markers fill stroke"
           d="m -23.259013,81.987929 -4.49e-4,-2.08107"
           id="path16" /><path
           style="fill:none;fill-opacity:1;stroke:#401138;stroke-width:0.626309;stroke-linecap:round;stroke-linejoin:round;stroke-miterlimit:10;stroke-dasharray:none;stroke-opacity:1;paint-order:markers fill stroke"
           d="m -24.616127,79.907121 h 2.712445"
           id="path53" /><path
           style="fill:none;fill-opacity:1;stroke:#401138;stroke-width:0.626309;stroke-linecap:round;stroke-linejoin:round;stroke-miterlimit:10;stroke-dasharray:none;stroke-opacity:1;paint-order:markers fill stroke"
           d="m -16.710346,81.987929 -4.49e-4,-2.08107"
           id="path54" /><path
           style="fill:none;fill-opacity:1;stroke:#401138;stroke-width:0.626309;stroke-linecap:round;stroke-linejoin:round;stroke-miterlimit:10;stroke-dasharray:none;stroke-opacity:1;paint-order:markers fill stroke"
           d="m -18.06746,79.907121 h 2.712445"
           id="path55" /><path
           style="fill:none;fill-opacity:1;stroke:#401138;stroke-width:0.626309;stroke-linecap:round;stroke-linejoin:round;stroke-miterlimit:10;stroke-dasharray:none;stroke-opacity:1;paint-order:markers fill stroke"
           d="m -10.161929,81.987929 -4.49e-4,-2.08107"
           id="path56" /><path
           style="fill:none;fill-opacity:1;stroke:#401138;stroke-width:0.626309;stroke-linecap:round;stroke-linejoin:round;stroke-miterlimit:10;stroke-dasharray:none;stroke-opacity:1;paint-order:markers fill stroke"
           d="m -11.519043,79.907121 h 2.7124447"
           id="path57" /><path
           style="fill:#eedeeb;fill-opacity:1;stroke:#e525c4;stroke-width:0.626307;stroke-linecap:round;stroke-linejoin:round;stroke-miterlimit:10;stroke-dasharray:none;stroke-opacity:1;paint-order:markers fill stroke"
           d="m -22.789421,84.700355 h 4.000076"
           id="path58" /><path
           style="fill:#eedeeb;fill-opacity:1;stroke:#e525c4;stroke-width:0.626307;stroke-linecap:round;stroke-linejoin:round;stroke-miterlimit:10;stroke-dasharray:none;stroke-opacity:1;paint-order:markers fill stroke"
           d="m -22.789421,86.570241 h 4.000076"
           id="path59" /></g><g
         id="g74"
         transform="translate(29.640936,-5.1188961)"><path
           style="fill:#eedeeb;fill-opacity:1;stroke:#401138;stroke-width:0.79375;stroke-linecap:round;stroke-linejoin:round;stroke-miterlimit:10;stroke-dasharray:none;stroke-opacity:1;paint-order:markers fill stroke"
           id="rect59"
           width="6.548398"
           height="13.096778"
           x="-16.710552"
           y="81.98793"
           d="m -15.710552,81.98793 h 4.548398 a 1,1 45 0 1 1,1 v 11.096778 a 1,1 135 0 1 -1,1 h -4.548398 a 1,1 45 0 1 -1,-1 V 82.98793 a 1,1 135 0 1 1,-1 z" /><path
           style="fill:#401138;fill-opacity:1;stroke:#401138;stroke-width:0.79375;stroke-linecap:round;stroke-linejoin:round;stroke-miterlimit:10;stroke-dasharray:none;stroke-opacity:1;paint-order:markers fill stroke"
           d="m -10.162154,88.536318 -5.91199,5.83484 z"
           id="path75" /><path
           style="fill:#401138;fill-opacity:1;stroke:#e525c4;stroke-width:0.793748;stroke-linecap:round;stroke-linejoin:round;stroke-miterlimit:10;stroke-dasharray:none;stroke-opacity:1;paint-order:markers fill stroke"
           d="m -11.816239,84.633763 h -3.240228"
           id="path76" /><path
           style="fill:#401138;fill-opacity:1;stroke:#e525c4;stroke-width:0.793748;stroke-linecap:round;stroke-linejoin:round;stroke-miterlimit:10;stroke-dasharray:none;stroke-opacity:1;paint-order:markers fill stroke"
           d="m -11.816239,86.750431 h -3.240228"
           id="path77" /><path
           style="fill:#eedeeb;fill-opacity:1;stroke:#401138;stroke-width:0.79375;stroke-linecap:round;stroke-linejoin:round;stroke-miterlimit:10;stroke-dasharray:none;stroke-opacity:1;paint-order:markers fill stroke"
           d="m -11.220488,95.084708 -1e-6,2.712427"
           id="path60" /><path
           style="fill:#eedeeb;fill-opacity:1;stroke:#401138;stroke-width:0.79375;stroke-linecap:round;stroke-linejoin:round;stroke-miterlimit:10;stroke-dasharray:none;stroke-opacity:1;paint-order:markers fill stroke"
           d="m -15.652159,95.084708 -1e-6,2.712427"
           id="path74" /></g></g></g></svg>
