<?xml version="1.0" encoding="UTF-8" standalone="no"?>
<svg
   width="101.93903"
   height="99.510681"
   viewBox="0 0 26.971366 26.328869"
   version="1.1"
   id="svg8"
   xml:space="preserve"
   xmlns="http://www.w3.org/2000/svg"
   xmlns:svg="http://www.w3.org/2000/svg"
   xmlns:rdf="http://www.w3.org/1999/02/22-rdf-syntax-ns#"
   xmlns:cc="http://creativecommons.org/ns#"
   xmlns:dc="http://purl.org/dc/elements/1.1/"><defs
     id="defs2" /><metadata
     id="metadata5"><rdf:RDF><cc:Work
         rdf:about=""><dc:format>image/svg+xml</dc:format><dc:type
           rdf:resource="http://purl.org/dc/dcmitype/StillImage" /></cc:Work></rdf:RDF></metadata><g
     id="g202"
     transform="translate(30.187824,-78.383081)"><g
       id="g196"
       transform="matrix(1.2722594,0,0,1.2722594,-28.243011,-5.7386376)"
       style="stroke-width:0.786"><path
         style="fill:#eedeeb;fill-opacity:1;stroke:#401138;stroke-width:0.623891;stroke-linecap:round;stroke-linejoin:round;stroke-miterlimit:10;stroke-opacity:1;-inkscape-stroke:none;paint-order:markers fill stroke"
         d="M 8.044309,86.502571 -0.25699474,84.071216 A 1.3348977,1.3348977 53.162345 0 1 -1.216679,82.790136 V 68.98093 a 0.74911997,0.74911997 143.16239 0 1 0.95968385,-0.718918 L 8.044229,70.693356"
         id="path195" /><path
         style="fill:#eedeeb;fill-opacity:1;stroke:#401138;stroke-width:0.623891;stroke-linecap:round;stroke-linejoin:round;stroke-miterlimit:10;stroke-opacity:1;-inkscape-stroke:none;paint-order:markers fill stroke"
         d="M 8.044229,70.693356 8.044165,86.502561 2.2676476,82.747643 A 1.8427343,1.8427343 61.512573 0 1 1.4292162,81.202636 l 2.6e-6,-14.264346 a 0.51272069,0.51272069 152.85486 0 1 0.8119849,-0.416321 z"
         id="path196" /></g><g
       id="g201"
       transform="matrix(1.0606626,0,0,1.0606626,4.2879379,-5.9326299)"
       style="stroke-width:0.942806"><path
         style="fill:#eedeeb;fill-opacity:1;stroke:#401138;stroke-width:0.748354;stroke-linecap:round;stroke-linejoin:round;stroke-miterlimit:10;stroke-opacity:1;-inkscape-stroke:none;paint-order:markers fill stroke"
         d="m -24.615387,97.797144 14.165685,-8e-6 c 0.5522851,0 1.4794776,0.01797 1.9588676,-0.244416 0.3356975,-0.183741 0.6129303,-0.460965 0.7966829,-0.796655 0.2624255,-0.479415 0.2444484,-1.406646 0.2444484,-1.958931 l -4.7e-6,-9.017876 a 1.0000005,1.0000005 44.999985 0 0 -1.0000005,-1 l -13.8107297,0"
         id="path197" /><path
         id="path198"
         style="fill:#eedeeb;fill-opacity:1;stroke:#401138;stroke-width:0.748354;stroke-linecap:round;stroke-linejoin:round;stroke-miterlimit:10;paint-order:markers fill stroke"
         d="m -105.96201,-94.271947 h -1.71244 a 1,1 135 0 0 -1,1 v 7.028139 c 0,0.552285 -0.0118,1.512448 0.35095,1.9122 0.0295,0.03251 0.0605,0.06356 0.093,0.09306 0.39976,0.362749 1.42467,0.36275 1.82442,1.7e-5 0.0325,-0.02949 0.0636,-0.06055 0.0931,-0.09306 0.36275,-0.399755 0.35096,-1.359934 0.35096,-1.912219 l 0,-9.740565 a 1.0000001,1.0000001 135 0 1 1,-1 l 13.809374,-10e-7"
         transform="translate(82.702996,181.76363)" /><path
         style="fill:none;stroke:#e525c4;stroke-width:0.748351;stroke-linecap:round;stroke-linejoin:round;stroke-miterlimit:10;stroke-opacity:1;-inkscape-stroke:none;paint-order:markers fill stroke"
         d="m -20.398757,88.006438 9.790759,3.2e-5"
         id="path199" /><path
         style="fill:none;stroke:#401138;stroke-width:0.748351;stroke-linecap:round;stroke-linejoin:round;stroke-miterlimit:10;stroke-opacity:1;-inkscape-stroke:none;paint-order:markers fill stroke"
         d="m -20.398757,90.123106 9.790759,3.2e-5"
         id="path200" /><path
         style="fill:none;stroke:#401138;stroke-width:0.748351;stroke-linecap:round;stroke-linejoin:round;stroke-miterlimit:10;stroke-opacity:1;-inkscape-stroke:none;paint-order:markers fill stroke"
         d="m -20.398757,92.239774 9.790759,3.2e-5"
         id="path201" /></g></g></svg>
